<svg xmlns="http://www.w3.org/2000/svg" viewBox="0 0 1200 760"><rect width="1200" height="760" fill="url(#g)"/><defs><linearGradient id="g" x1="0" x2="1" y1="0" y2="1"><stop stop-color="#eaf3fb"/><stop offset="1" stop-color="#b9d2e9"/></linearGradient><linearGradient id="b" x1="0" x2="1"><stop stop-color="#083d73"/><stop offset="1" stop-color="#1268b8"/></linearGradient><filter id="s"><feDropShadow dx="0" dy="18" stdDeviation="18" flood-opacity=".18"/></filter></defs><g opacity=".24" stroke="#0b4d92" stroke-width="1"><path d="M0 70H1200"/><path d="M0 140H1200"/><path d="M0 210H1200"/><path d="M0 280H1200"/><path d="M0 350H1200"/><path d="M0 420H1200"/><path d="M0 490H1200"/><path d="M0 560H1200"/><path d="M0 630H1200"/><path d="M80 0V760"/><path d="M160 0V760"/><path d="M240 0V760"/><path d="M320 0V760"/><path d="M400 0V760"/><path d="M480 0V760"/><path d="M560 0V760"/><path d="M640 0V760"/><path d="M720 0V760"/><path d="M800 0V760"/><path d="M880 0V760"/><path d="M960 0V760"/><path d="M1040 0V760"/><path d="M1120 0V760"/></g><g stroke="#0b4d92" stroke-width="3" opacity=".65"><path d="M250 180H950"/><path d="M250 235H950"/><path d="M250 290H950"/><path d="M250 345H950"/><path d="M250 400H950"/><path d="M250 455H950"/><path d="M250 510H950"/><path d="M250 565H950"/><path d="M250 620H950"/><path d="M250 180V620"/><path d="M320 180V620"/><path d="M390 180V620"/><path d="M460 180V620"/><path d="M530 180V620"/><path d="M600 180V620"/><path d="M670 180V620"/><path d="M740 180V620"/><path d="M810 180V620"/><path d="M880 180V620"/><path d="M950 180V620"/></g><path d="M600 135L710 220V500L600 665 490 500V220z" fill="#fff" stroke="#0b4d92" stroke-width="7"/><path d="M600 250V545M515 330H685M525 455H675" stroke="#1268b8" stroke-width="12"/><text x="70" y="690" font-family="Arial,sans-serif" font-size="22" font-weight="700" letter-spacing="5" fill="#0b4d92">AERONIT DEFENCE / ENGINEERING</text></svg>