<svg xmlns="http://www.w3.org/2000/svg" viewBox="0 0 1200 760"><rect width="1200" height="760" fill="url(#g)"/><defs><linearGradient id="g" x1="0" x2="1" y1="0" y2="1"><stop stop-color="#eaf3fb"/><stop offset="1" stop-color="#b9d2e9"/></linearGradient><linearGradient id="b" x1="0" x2="1"><stop stop-color="#083d73"/><stop offset="1" stop-color="#1268b8"/></linearGradient><filter id="s"><feDropShadow dx="0" dy="18" stdDeviation="18" flood-opacity=".18"/></filter></defs><g opacity=".24" stroke="#0b4d92" stroke-width="1"><path d="M0 70H1200"/><path d="M0 140H1200"/><path d="M0 210H1200"/><path d="M0 280H1200"/><path d="M0 350H1200"/><path d="M0 420H1200"/><path d="M0 490H1200"/><path d="M0 560H1200"/><path d="M0 630H1200"/><path d="M80 0V760"/><path d="M160 0V760"/><path d="M240 0V760"/><path d="M320 0V760"/><path d="M400 0V760"/><path d="M480 0V760"/><path d="M560 0V760"/><path d="M640 0V760"/><path d="M720 0V760"/><path d="M800 0V760"/><path d="M880 0V760"/><path d="M960 0V760"/><path d="M1040 0V760"/><path d="M1120 0V760"/></g><rect x="300" y="190" width="620" height="440" rx="28" fill="#fff" stroke="#0b4d92" stroke-width="5" filter="url(#s)"/><rect x="455" y="300" width="310" height="220" rx="16" fill="url(#g)" stroke="#0b4d92" stroke-width="4"/><g stroke="#0b4d92" stroke-width="5" fill="none"><path d="M455 345H350V280H270"/><path d="M455 410H310V470H230"/><path d="M765 350H900V275H980"/><path d="M765 465H880V540H1010"/></g><g fill="#1268b8"><circle cx="270" cy="280" r="10"/><circle cx="230" cy="470" r="10"/><circle cx="980" cy="275" r="10"/><circle cx="1010" cy="540" r="10"/></g><text x="70" y="690" font-family="Arial,sans-serif" font-size="22" font-weight="700" letter-spacing="5" fill="#0b4d92">AERONIT DEFENCE / ELECTRONICS</text></svg>